<mxfile host="65bd71144e">
    <diagram id="lTN6RxZ1lTBR280XBDEQ" name="Page-1">
        <mxGraphModel dx="1188" dy="812" grid="1" gridSize="10" guides="1" tooltips="1" connect="1" arrows="1" fold="1" page="1" pageScale="1" pageWidth="827" pageHeight="1169" math="0" shadow="0">
            <root>
                <mxCell id="0"/>
                <mxCell id="1" style="" parent="0"/>
                <mxCell id="162" value="Réarangement d'une liste d'entité" style="shape=umlFrame;whiteSpace=wrap;html=1;width=250;height=30;boundedLbl=1;verticalAlign=middle;align=left;spacingLeft=5;fontFamily=Times New Roman;fontSize=16;strokeColor=#000000;fillColor=#f5f5f5;fontColor=#333333;" vertex="1" parent="1">
                    <mxGeometry x="90" y="110" width="260" height="290" as="geometry"/>
                </mxCell>
                <mxCell id="263" value="Comportement souhaité" style="shape=umlFrame;whiteSpace=wrap;html=1;width=250;height=30;boundedLbl=1;verticalAlign=middle;align=left;spacingLeft=5;fontFamily=Times New Roman;fontSize=16;strokeColor=#000000;fillColor=#f5f5f5;fontColor=#333333;" vertex="1" parent="1">
                    <mxGeometry x="410" y="110" width="260" height="290" as="geometry"/>
                </mxCell>
                <mxCell id="20" value="Action" style="" parent="0"/>
                <mxCell id="21" value="" style="verticalLabelPosition=bottom;verticalAlign=top;html=1;shape=mxgraph.basic.x;fontSize=24;fillColor=#f8cecc;strokeColor=#b85450;" vertex="1" parent="20">
                    <mxGeometry x="110" y="220" width="40" height="40" as="geometry"/>
                </mxCell>
                <mxCell id="34" value="" style="verticalLabelPosition=bottom;verticalAlign=top;html=1;shape=mxgraph.basic.x;fontSize=24;fillColor=#f8cecc;strokeColor=#b85450;" vertex="1" parent="20">
                    <mxGeometry x="30" y="790" width="100" height="100" as="geometry"/>
                </mxCell>
                <mxCell id="35" value="Remove At Swap Back" style="text;html=1;strokeColor=default;fillColor=none;align=center;verticalAlign=middle;whiteSpace=wrap;rounded=0;fontSize=24;" vertex="1" parent="20">
                    <mxGeometry x="40" y="600" width="520" height="40" as="geometry"/>
                </mxCell>
                <mxCell id="37" value="" style="html=1;shadow=0;dashed=0;align=center;verticalAlign=middle;shape=mxgraph.arrows2.arrow;dy=0.6;dx=40;notch=0;fontSize=24;strokeColor=default;fillColor=default;" vertex="1" parent="20">
                    <mxGeometry x="250" y="805" width="100" height="70" as="geometry"/>
                </mxCell>
                <mxCell id="38" value="" style="verticalLabelPosition=bottom;verticalAlign=top;html=1;shape=mxgraph.basic.x;fontSize=24;fillColor=#f8cecc;strokeColor=#b85450;" vertex="1" parent="20">
                    <mxGeometry x="30" y="1390" width="100" height="100" as="geometry"/>
                </mxCell>
                <mxCell id="39" value="Recherché" style="text;html=1;strokeColor=default;fillColor=none;align=center;verticalAlign=middle;whiteSpace=wrap;rounded=0;fontSize=24;" vertex="1" parent="20">
                    <mxGeometry x="40" y="1200" width="720" height="40" as="geometry"/>
                </mxCell>
                <mxCell id="42" value="1" style="ellipse;whiteSpace=wrap;html=1;aspect=fixed;fontSize=24;fontStyle=1;fillColor=none;" vertex="1" parent="20">
                    <mxGeometry x="40" y="1280" width="80" height="80" as="geometry"/>
                </mxCell>
                <mxCell id="43" value="2" style="ellipse;whiteSpace=wrap;html=1;aspect=fixed;fontSize=24;fontStyle=1;fillColor=none;" vertex="1" parent="20">
                    <mxGeometry x="40" y="1400" width="80" height="80" as="geometry"/>
                </mxCell>
                <mxCell id="44" value="3" style="ellipse;whiteSpace=wrap;html=1;aspect=fixed;fontSize=24;fontStyle=1;fillColor=none;" vertex="1" parent="20">
                    <mxGeometry x="40" y="1520" width="80" height="80" as="geometry"/>
                </mxCell>
                <mxCell id="45" value="4" style="ellipse;whiteSpace=wrap;html=1;aspect=fixed;fontSize=24;fontStyle=1;fillColor=none;" vertex="1" parent="20">
                    <mxGeometry x="160" y="1280" width="80" height="80" as="geometry"/>
                </mxCell>
                <mxCell id="70" value="" style="edgeStyle=none;html=1;fontSize=16;shape=flexArrow;" edge="1" parent="20" source="46" target="43">
                    <mxGeometry relative="1" as="geometry"/>
                </mxCell>
                <mxCell id="46" value="5" style="ellipse;whiteSpace=wrap;html=1;aspect=fixed;fontSize=24;fontStyle=1;fillColor=#fff2cc;strokeColor=#d6b656;" vertex="1" parent="20">
                    <mxGeometry x="160" y="1400" width="80" height="80" as="geometry"/>
                </mxCell>
                <mxCell id="47" value="6" style="ellipse;whiteSpace=wrap;html=1;aspect=fixed;fontSize=24;fontStyle=1;fillColor=none;" vertex="1" parent="20">
                    <mxGeometry x="160" y="1520" width="80" height="80" as="geometry"/>
                </mxCell>
                <mxCell id="66" value="7" style="ellipse;whiteSpace=wrap;html=1;aspect=fixed;fontSize=24;fontStyle=1;fillColor=none;" vertex="1" parent="20">
                    <mxGeometry x="280" y="1280" width="80" height="80" as="geometry"/>
                </mxCell>
                <mxCell id="69" value="" style="edgeStyle=none;html=1;fontSize=16;shape=flexArrow;" edge="1" parent="20" source="67" target="46">
                    <mxGeometry relative="1" as="geometry"/>
                </mxCell>
                <mxCell id="67" value="8" style="ellipse;whiteSpace=wrap;html=1;aspect=fixed;fontSize=24;fontStyle=1;fillColor=#ffe6cc;strokeColor=#d79b00;" vertex="1" parent="20">
                    <mxGeometry x="280" y="1400" width="80" height="80" as="geometry"/>
                </mxCell>
                <mxCell id="71" value="" style="edgeStyle=none;shape=flexArrow;html=1;fontSize=16;" edge="1" parent="20" source="68" target="67">
                    <mxGeometry relative="1" as="geometry"/>
                </mxCell>
                <mxCell id="68" value="9" style="ellipse;whiteSpace=wrap;html=1;aspect=fixed;fontSize=24;fontStyle=1;fillColor=#f8cecc;strokeColor=#b85450;" vertex="1" parent="20">
                    <mxGeometry x="280" y="1520" width="80" height="80" as="geometry"/>
                </mxCell>
                <mxCell id="79" style="edgeStyle=orthogonalEdgeStyle;html=1;fontFamily=Times New Roman;fontSize=16;exitX=0;exitY=0.5;exitDx=0;exitDy=0;rounded=0;" edge="1" parent="20" source="8" target="7">
                    <mxGeometry relative="1" as="geometry">
                        <Array as="points">
                            <mxPoint x="160" y="180"/>
                            <mxPoint x="160" y="360"/>
                        </Array>
                    </mxGeometry>
                </mxCell>
                <mxCell id="84" style="edgeStyle=orthogonalEdgeStyle;html=1;fontFamily=Times New Roman;fontSize=16;rounded=0;" edge="1" parent="20" source="12" target="11">
                    <mxGeometry relative="1" as="geometry">
                        <mxPoint x="250" y="180" as="sourcePoint"/>
                        <mxPoint x="210" y="420" as="targetPoint"/>
                        <Array as="points">
                            <mxPoint x="220" y="180"/>
                            <mxPoint x="220" y="360"/>
                        </Array>
                    </mxGeometry>
                </mxCell>
                <mxCell id="88" style="edgeStyle=orthogonalEdgeStyle;html=1;fontFamily=Times New Roman;fontSize=16;rounded=0;" edge="1" parent="20" source="16" target="15">
                    <mxGeometry relative="1" as="geometry">
                        <mxPoint x="330" y="180" as="sourcePoint"/>
                        <mxPoint x="290" y="420" as="targetPoint"/>
                        <Array as="points">
                            <mxPoint x="280" y="180"/>
                            <mxPoint x="280" y="360"/>
                        </Array>
                    </mxGeometry>
                </mxCell>
                <mxCell id="227" value="" style="verticalLabelPosition=bottom;verticalAlign=top;html=1;shape=mxgraph.basic.x;fontSize=24;fillColor=#f8cecc;strokeColor=#b85450;" vertex="1" parent="20">
                    <mxGeometry x="430" y="220" width="40" height="40" as="geometry"/>
                </mxCell>
                <mxCell id="231" value="1" style="ellipse;whiteSpace=wrap;html=1;aspect=fixed;fontSize=24;fontStyle=1;fillColor=none;fontFamily=Times New Roman;" vertex="1" parent="20">
                    <mxGeometry x="430" y="160" width="40" height="40" as="geometry"/>
                </mxCell>
                <mxCell id="232" value="2" style="ellipse;whiteSpace=wrap;html=1;aspect=fixed;fontSize=24;fontStyle=1;fillColor=none;fontFamily=Times New Roman;" vertex="1" parent="20">
                    <mxGeometry x="430" y="220" width="40" height="40" as="geometry"/>
                </mxCell>
                <mxCell id="234" value="3" style="ellipse;whiteSpace=wrap;html=1;aspect=fixed;fontSize=24;fontStyle=1;fillColor=none;fontFamily=Times New Roman;" vertex="1" parent="20">
                    <mxGeometry x="430" y="280" width="40" height="40" as="geometry"/>
                </mxCell>
                <mxCell id="236" value="4" style="ellipse;whiteSpace=wrap;html=1;aspect=fixed;fontSize=24;fontStyle=1;fillColor=none;fontFamily=Times New Roman;" vertex="1" parent="20">
                    <mxGeometry x="430" y="340" width="40" height="40" as="geometry"/>
                </mxCell>
                <mxCell id="237" value="5" style="ellipse;whiteSpace=wrap;html=1;aspect=fixed;fontSize=24;fontStyle=1;fillColor=none;fontFamily=Times New Roman;" vertex="1" parent="20">
                    <mxGeometry x="490" y="160" width="40" height="40" as="geometry"/>
                </mxCell>
                <mxCell id="258" value="" style="edgeStyle=orthogonalEdgeStyle;rounded=0;html=1;fontFamily=Times New Roman;fontSize=16;" edge="1" parent="20" source="239" target="232">
                    <mxGeometry relative="1" as="geometry"/>
                </mxCell>
                <mxCell id="239" value="6" style="ellipse;whiteSpace=wrap;html=1;aspect=fixed;fontSize=24;fontStyle=1;fillColor=none;fontFamily=Times New Roman;" vertex="1" parent="20">
                    <mxGeometry x="490" y="220" width="40" height="40" as="geometry"/>
                </mxCell>
                <mxCell id="241" value="7" style="ellipse;whiteSpace=wrap;html=1;aspect=fixed;fontSize=24;fontStyle=1;fillColor=none;fontFamily=Times New Roman;" vertex="1" parent="20">
                    <mxGeometry x="490" y="280" width="40" height="40" as="geometry"/>
                </mxCell>
                <mxCell id="243" value="8" style="ellipse;whiteSpace=wrap;html=1;aspect=fixed;fontSize=24;fontStyle=1;fillColor=none;fontFamily=Times New Roman;" vertex="1" parent="20">
                    <mxGeometry x="490" y="340" width="40" height="40" as="geometry"/>
                </mxCell>
                <mxCell id="244" value="9" style="ellipse;whiteSpace=wrap;html=1;aspect=fixed;fontSize=24;fontStyle=1;fillColor=none;fontFamily=Times New Roman;" vertex="1" parent="20">
                    <mxGeometry x="550" y="160" width="40" height="40" as="geometry"/>
                </mxCell>
                <mxCell id="259" value="" style="edgeStyle=orthogonalEdgeStyle;rounded=0;html=1;fontFamily=Times New Roman;fontSize=16;" edge="1" parent="20" source="246" target="239">
                    <mxGeometry relative="1" as="geometry"/>
                </mxCell>
                <mxCell id="246" value="10" style="ellipse;whiteSpace=wrap;html=1;aspect=fixed;fontSize=24;fontStyle=1;fillColor=none;fontFamily=Times New Roman;" vertex="1" parent="20">
                    <mxGeometry x="550" y="220" width="40" height="40" as="geometry"/>
                </mxCell>
                <mxCell id="248" value="11" style="ellipse;whiteSpace=wrap;html=1;aspect=fixed;fontSize=24;fontStyle=1;fillColor=none;fontFamily=Times New Roman;" vertex="1" parent="20">
                    <mxGeometry x="550" y="280" width="40" height="40" as="geometry"/>
                </mxCell>
                <mxCell id="250" value="12" style="ellipse;whiteSpace=wrap;html=1;aspect=fixed;fontSize=24;fontStyle=1;fillColor=none;fontFamily=Times New Roman;" vertex="1" parent="20">
                    <mxGeometry x="550" y="340" width="40" height="40" as="geometry"/>
                </mxCell>
                <mxCell id="251" value="13" style="ellipse;whiteSpace=wrap;html=1;aspect=fixed;fontSize=24;fontStyle=1;fillColor=none;fontFamily=Times New Roman;" vertex="1" parent="20">
                    <mxGeometry x="610" y="160" width="40" height="40" as="geometry"/>
                </mxCell>
                <mxCell id="260" value="" style="edgeStyle=orthogonalEdgeStyle;rounded=0;html=1;fontFamily=Times New Roman;fontSize=16;" edge="1" parent="20" source="253" target="246">
                    <mxGeometry relative="1" as="geometry"/>
                </mxCell>
                <mxCell id="253" value="14" style="ellipse;whiteSpace=wrap;html=1;aspect=fixed;fontSize=24;fontStyle=1;fillColor=none;fontFamily=Times New Roman;" vertex="1" parent="20">
                    <mxGeometry x="610" y="220" width="40" height="40" as="geometry"/>
                </mxCell>
                <mxCell id="261" value="" style="edgeStyle=orthogonalEdgeStyle;rounded=0;html=1;fontFamily=Times New Roman;fontSize=16;" edge="1" parent="20" source="255" target="253">
                    <mxGeometry relative="1" as="geometry"/>
                </mxCell>
                <mxCell id="255" value="15" style="ellipse;whiteSpace=wrap;html=1;aspect=fixed;fontSize=24;fontStyle=1;fillColor=none;fontFamily=Times New Roman;" vertex="1" parent="20">
                    <mxGeometry x="610" y="280" width="40" height="40" as="geometry"/>
                </mxCell>
                <mxCell id="262" value="" style="edgeStyle=orthogonalEdgeStyle;rounded=0;html=1;fontFamily=Times New Roman;fontSize=16;" edge="1" parent="20" source="257" target="255">
                    <mxGeometry relative="1" as="geometry"/>
                </mxCell>
                <mxCell id="257" value="16" style="ellipse;whiteSpace=wrap;html=1;aspect=fixed;fontSize=24;fontStyle=1;fillColor=none;fontFamily=Times New Roman;" vertex="1" parent="20">
                    <mxGeometry x="610" y="340" width="40" height="40" as="geometry"/>
                </mxCell>
                <mxCell id="3" value="Object" style="" parent="0"/>
                <mxCell id="4" value="1" style="ellipse;whiteSpace=wrap;html=1;aspect=fixed;fontSize=24;fontStyle=1;fillColor=none;fontFamily=Times New Roman;" vertex="1" parent="3">
                    <mxGeometry x="110" y="160" width="40" height="40" as="geometry"/>
                </mxCell>
                <mxCell id="5" value="2" style="ellipse;whiteSpace=wrap;html=1;aspect=fixed;fontSize=24;fontStyle=1;fillColor=none;fontFamily=Times New Roman;" vertex="1" parent="3">
                    <mxGeometry x="110" y="220" width="40" height="40" as="geometry"/>
                </mxCell>
                <mxCell id="77" value="" style="edgeStyle=none;html=1;fontFamily=Times New Roman;fontSize=16;" edge="1" parent="3" source="6" target="5">
                    <mxGeometry relative="1" as="geometry"/>
                </mxCell>
                <mxCell id="6" value="3" style="ellipse;whiteSpace=wrap;html=1;aspect=fixed;fontSize=24;fontStyle=1;fillColor=none;fontFamily=Times New Roman;" vertex="1" parent="3">
                    <mxGeometry x="110" y="280" width="40" height="40" as="geometry"/>
                </mxCell>
                <mxCell id="78" value="" style="edgeStyle=none;html=1;fontFamily=Times New Roman;fontSize=16;" edge="1" parent="3" source="7" target="6">
                    <mxGeometry relative="1" as="geometry"/>
                </mxCell>
                <mxCell id="7" value="4" style="ellipse;whiteSpace=wrap;html=1;aspect=fixed;fontSize=24;fontStyle=1;fillColor=none;fontFamily=Times New Roman;" vertex="1" parent="3">
                    <mxGeometry x="110" y="340" width="40" height="40" as="geometry"/>
                </mxCell>
                <mxCell id="8" value="5" style="ellipse;whiteSpace=wrap;html=1;aspect=fixed;fontSize=24;fontStyle=1;fillColor=none;fontFamily=Times New Roman;" vertex="1" parent="3">
                    <mxGeometry x="170" y="160" width="40" height="40" as="geometry"/>
                </mxCell>
                <mxCell id="81" value="" style="edgeStyle=orthogonalEdgeStyle;html=1;fontFamily=Times New Roman;fontSize=16;" edge="1" parent="3" source="9" target="8">
                    <mxGeometry relative="1" as="geometry"/>
                </mxCell>
                <mxCell id="9" value="6" style="ellipse;whiteSpace=wrap;html=1;aspect=fixed;fontSize=24;fontStyle=1;fillColor=none;fontFamily=Times New Roman;" vertex="1" parent="3">
                    <mxGeometry x="170" y="220" width="40" height="40" as="geometry"/>
                </mxCell>
                <mxCell id="82" value="" style="edgeStyle=orthogonalEdgeStyle;html=1;fontFamily=Times New Roman;fontSize=16;" edge="1" parent="3" source="10" target="9">
                    <mxGeometry relative="1" as="geometry"/>
                </mxCell>
                <mxCell id="10" value="7" style="ellipse;whiteSpace=wrap;html=1;aspect=fixed;fontSize=24;fontStyle=1;fillColor=none;fontFamily=Times New Roman;" vertex="1" parent="3">
                    <mxGeometry x="170" y="280" width="40" height="40" as="geometry"/>
                </mxCell>
                <mxCell id="83" value="" style="edgeStyle=orthogonalEdgeStyle;html=1;fontFamily=Times New Roman;fontSize=16;" edge="1" parent="3" source="11" target="10">
                    <mxGeometry relative="1" as="geometry"/>
                </mxCell>
                <mxCell id="11" value="8" style="ellipse;whiteSpace=wrap;html=1;aspect=fixed;fontSize=24;fontStyle=1;fillColor=none;fontFamily=Times New Roman;" vertex="1" parent="3">
                    <mxGeometry x="170" y="340" width="40" height="40" as="geometry"/>
                </mxCell>
                <mxCell id="12" value="9" style="ellipse;whiteSpace=wrap;html=1;aspect=fixed;fontSize=24;fontStyle=1;fillColor=none;fontFamily=Times New Roman;" vertex="1" parent="3">
                    <mxGeometry x="230" y="160" width="40" height="40" as="geometry"/>
                </mxCell>
                <mxCell id="85" value="" style="edgeStyle=orthogonalEdgeStyle;html=1;fontFamily=Times New Roman;fontSize=16;" edge="1" parent="3" source="13" target="12">
                    <mxGeometry relative="1" as="geometry"/>
                </mxCell>
                <mxCell id="13" value="10" style="ellipse;whiteSpace=wrap;html=1;aspect=fixed;fontSize=24;fontStyle=1;fillColor=none;fontFamily=Times New Roman;" vertex="1" parent="3">
                    <mxGeometry x="230" y="220" width="40" height="40" as="geometry"/>
                </mxCell>
                <mxCell id="86" value="" style="edgeStyle=orthogonalEdgeStyle;html=1;fontFamily=Times New Roman;fontSize=16;" edge="1" parent="3" source="14" target="13">
                    <mxGeometry relative="1" as="geometry"/>
                </mxCell>
                <mxCell id="14" value="11" style="ellipse;whiteSpace=wrap;html=1;aspect=fixed;fontSize=24;fontStyle=1;fillColor=none;fontFamily=Times New Roman;" vertex="1" parent="3">
                    <mxGeometry x="230" y="280" width="40" height="40" as="geometry"/>
                </mxCell>
                <mxCell id="87" value="" style="edgeStyle=orthogonalEdgeStyle;html=1;fontFamily=Times New Roman;fontSize=16;" edge="1" parent="3" source="15" target="14">
                    <mxGeometry relative="1" as="geometry"/>
                </mxCell>
                <mxCell id="15" value="12" style="ellipse;whiteSpace=wrap;html=1;aspect=fixed;fontSize=24;fontStyle=1;fillColor=none;fontFamily=Times New Roman;" vertex="1" parent="3">
                    <mxGeometry x="230" y="340" width="40" height="40" as="geometry"/>
                </mxCell>
                <mxCell id="16" value="13" style="ellipse;whiteSpace=wrap;html=1;aspect=fixed;fontSize=24;fontStyle=1;fillColor=none;fontFamily=Times New Roman;" vertex="1" parent="3">
                    <mxGeometry x="290" y="160" width="40" height="40" as="geometry"/>
                </mxCell>
                <mxCell id="89" value="" style="edgeStyle=orthogonalEdgeStyle;html=1;fontFamily=Times New Roman;fontSize=16;" edge="1" parent="3" source="17" target="16">
                    <mxGeometry relative="1" as="geometry"/>
                </mxCell>
                <mxCell id="17" value="14" style="ellipse;whiteSpace=wrap;html=1;aspect=fixed;fontSize=24;fontStyle=1;fillColor=none;fontFamily=Times New Roman;" vertex="1" parent="3">
                    <mxGeometry x="290" y="220" width="40" height="40" as="geometry"/>
                </mxCell>
                <mxCell id="90" value="" style="edgeStyle=orthogonalEdgeStyle;html=1;fontFamily=Times New Roman;fontSize=16;" edge="1" parent="3" source="18" target="17">
                    <mxGeometry relative="1" as="geometry"/>
                </mxCell>
                <mxCell id="18" value="15" style="ellipse;whiteSpace=wrap;html=1;aspect=fixed;fontSize=24;fontStyle=1;fillColor=none;fontFamily=Times New Roman;" vertex="1" parent="3">
                    <mxGeometry x="290" y="280" width="40" height="40" as="geometry"/>
                </mxCell>
                <mxCell id="91" value="" style="edgeStyle=orthogonalEdgeStyle;html=1;fontFamily=Times New Roman;fontSize=16;" edge="1" parent="3" source="19" target="18">
                    <mxGeometry relative="1" as="geometry"/>
                </mxCell>
                <mxCell id="19" value="16" style="ellipse;whiteSpace=wrap;html=1;aspect=fixed;fontSize=24;fontStyle=1;fillColor=none;fontFamily=Times New Roman;" vertex="1" parent="3">
                    <mxGeometry x="290" y="340" width="40" height="40" as="geometry"/>
                </mxCell>
                <mxCell id="22" value="1" style="ellipse;whiteSpace=wrap;html=1;aspect=fixed;fontSize=24;fontStyle=1;fillColor=none;" vertex="1" parent="3">
                    <mxGeometry x="40" y="680" width="80" height="80" as="geometry"/>
                </mxCell>
                <mxCell id="23" value="2" style="ellipse;whiteSpace=wrap;html=1;aspect=fixed;fontSize=24;fontStyle=1;fillColor=none;" vertex="1" parent="3">
                    <mxGeometry x="40" y="800" width="80" height="80" as="geometry"/>
                </mxCell>
                <mxCell id="24" value="3" style="ellipse;whiteSpace=wrap;html=1;aspect=fixed;fontSize=24;fontStyle=1;fillColor=none;" vertex="1" parent="3">
                    <mxGeometry x="40" y="920" width="80" height="80" as="geometry"/>
                </mxCell>
                <mxCell id="25" value="4" style="ellipse;whiteSpace=wrap;html=1;aspect=fixed;fontSize=24;fontStyle=1;fillColor=none;" vertex="1" parent="3">
                    <mxGeometry x="160" y="680" width="80" height="80" as="geometry"/>
                </mxCell>
                <mxCell id="26" value="5" style="ellipse;whiteSpace=wrap;html=1;aspect=fixed;fontSize=24;fontStyle=1;fillColor=none;" vertex="1" parent="3">
                    <mxGeometry x="160" y="800" width="80" height="80" as="geometry"/>
                </mxCell>
                <mxCell id="27" value="6" style="ellipse;whiteSpace=wrap;html=1;aspect=fixed;fontSize=24;fontStyle=1;fillColor=#d5e8d4;strokeColor=#82b366;" vertex="1" parent="3">
                    <mxGeometry x="160" y="920" width="80" height="80" as="geometry"/>
                </mxCell>
                <mxCell id="28" value="1" style="ellipse;whiteSpace=wrap;html=1;aspect=fixed;fontSize=24;fontStyle=1;fillColor=none;" vertex="1" parent="3">
                    <mxGeometry x="360" y="680" width="80" height="80" as="geometry"/>
                </mxCell>
                <mxCell id="30" value="3" style="ellipse;whiteSpace=wrap;html=1;aspect=fixed;fontSize=24;fontStyle=1;fillColor=none;" vertex="1" parent="3">
                    <mxGeometry x="360" y="920" width="80" height="80" as="geometry"/>
                </mxCell>
                <mxCell id="31" value="2(6)" style="ellipse;whiteSpace=wrap;html=1;aspect=fixed;fontSize=24;fontStyle=1;fillColor=#d5e8d4;strokeColor=#82b366;" vertex="1" parent="3">
                    <mxGeometry x="360" y="800" width="80" height="80" as="geometry"/>
                </mxCell>
                <mxCell id="32" value="4" style="ellipse;whiteSpace=wrap;html=1;aspect=fixed;fontSize=24;fontStyle=1;fillColor=none;" vertex="1" parent="3">
                    <mxGeometry x="480" y="680" width="80" height="80" as="geometry"/>
                </mxCell>
                <mxCell id="33" value="5" style="ellipse;whiteSpace=wrap;html=1;aspect=fixed;fontSize=24;fontStyle=1;fillColor=none;" vertex="1" parent="3">
                    <mxGeometry x="480" y="800" width="80" height="80" as="geometry"/>
                </mxCell>
                <mxCell id="57" value="1" style="ellipse;whiteSpace=wrap;html=1;aspect=fixed;fontSize=24;fontStyle=1;fillColor=none;" vertex="1" parent="3">
                    <mxGeometry x="440" y="1280" width="80" height="80" as="geometry"/>
                </mxCell>
                <mxCell id="58" value="4" style="ellipse;whiteSpace=wrap;html=1;aspect=fixed;fontSize=24;fontStyle=1;fillColor=none;" vertex="1" parent="3">
                    <mxGeometry x="560" y="1280" width="80" height="80" as="geometry"/>
                </mxCell>
                <mxCell id="59" value="3" style="ellipse;whiteSpace=wrap;html=1;aspect=fixed;fontSize=24;fontStyle=1;fillColor=none;" vertex="1" parent="3">
                    <mxGeometry x="440" y="1520" width="80" height="80" as="geometry"/>
                </mxCell>
                <mxCell id="60" value="2&lt;br&gt;&lt;span style=&quot;font-weight: normal&quot;&gt;(5)&lt;/span&gt;" style="ellipse;whiteSpace=wrap;html=1;aspect=fixed;fontSize=24;fontStyle=1;fillColor=#fff2cc;strokeColor=#d6b656;" vertex="1" parent="3">
                    <mxGeometry x="440" y="1400" width="80" height="80" as="geometry"/>
                </mxCell>
                <mxCell id="61" value="5&lt;br&gt;&lt;span style=&quot;font-weight: normal&quot;&gt;(8)&lt;/span&gt;" style="ellipse;whiteSpace=wrap;html=1;aspect=fixed;fontSize=24;fontStyle=1;fillColor=#ffe6cc;strokeColor=#d79b00;" vertex="1" parent="3">
                    <mxGeometry x="560" y="1400" width="80" height="80" as="geometry"/>
                </mxCell>
                <mxCell id="62" value="7" style="ellipse;whiteSpace=wrap;html=1;aspect=fixed;fontSize=24;fontStyle=1;fillColor=none;" vertex="1" parent="3">
                    <mxGeometry x="680" y="1280" width="80" height="80" as="geometry"/>
                </mxCell>
                <mxCell id="63" value="8&lt;br&gt;&lt;span style=&quot;font-weight: normal&quot;&gt;(9)&lt;/span&gt;" style="ellipse;whiteSpace=wrap;html=1;aspect=fixed;fontSize=24;fontStyle=1;fillColor=#f8cecc;strokeColor=#b85450;" vertex="1" parent="3">
                    <mxGeometry x="680" y="1400" width="80" height="80" as="geometry"/>
                </mxCell>
                <mxCell id="65" value="6" style="ellipse;whiteSpace=wrap;html=1;aspect=fixed;fontSize=24;fontStyle=1;fillColor=none;" vertex="1" parent="3">
                    <mxGeometry x="560" y="1520" width="80" height="80" as="geometry"/>
                </mxCell>
                <mxCell id="124" value="" style="verticalLabelPosition=bottom;verticalAlign=top;html=1;shape=mxgraph.basic.x;fontSize=24;fillColor=#f8cecc;strokeColor=#b85450;" vertex="1" parent="3">
                    <mxGeometry x="780" y="230" width="60" height="60" as="geometry"/>
                </mxCell>
                <mxCell id="128" value="1" style="ellipse;whiteSpace=wrap;html=1;aspect=fixed;fontSize=24;fontStyle=1;fillColor=none;fontFamily=Times New Roman;" vertex="1" parent="3">
                    <mxGeometry x="790" y="160" width="40" height="40" as="geometry"/>
                </mxCell>
                <mxCell id="130" value="2" style="ellipse;whiteSpace=wrap;html=1;aspect=fixed;fontSize=24;fontStyle=1;fillColor=none;fontFamily=Times New Roman;" vertex="1" parent="3">
                    <mxGeometry x="790" y="240" width="40" height="40" as="geometry"/>
                </mxCell>
                <mxCell id="132" value="3" style="ellipse;whiteSpace=wrap;html=1;aspect=fixed;fontSize=24;fontStyle=1;fillColor=none;fontFamily=Times New Roman;" vertex="1" parent="3">
                    <mxGeometry x="790" y="320" width="40" height="40" as="geometry"/>
                </mxCell>
                <mxCell id="134" value="4" style="ellipse;whiteSpace=wrap;html=1;aspect=fixed;fontSize=24;fontStyle=1;fillColor=none;fontFamily=Times New Roman;" vertex="1" parent="3">
                    <mxGeometry x="790" y="400" width="40" height="40" as="geometry"/>
                </mxCell>
                <mxCell id="135" value="5" style="ellipse;whiteSpace=wrap;html=1;aspect=fixed;fontSize=24;fontStyle=1;fillColor=none;fontFamily=Times New Roman;" vertex="1" parent="3">
                    <mxGeometry x="870" y="160" width="40" height="40" as="geometry"/>
                </mxCell>
                <mxCell id="157" value="" style="edgeStyle=orthogonalEdgeStyle;html=1;fontFamily=Times New Roman;fontSize=16;" edge="1" parent="3" source="137" target="130">
                    <mxGeometry relative="1" as="geometry"/>
                </mxCell>
                <mxCell id="137" value="6" style="ellipse;whiteSpace=wrap;html=1;aspect=fixed;fontSize=24;fontStyle=1;fillColor=none;fontFamily=Times New Roman;" vertex="1" parent="3">
                    <mxGeometry x="870" y="240" width="40" height="40" as="geometry"/>
                </mxCell>
                <mxCell id="139" value="7" style="ellipse;whiteSpace=wrap;html=1;aspect=fixed;fontSize=24;fontStyle=1;fillColor=none;fontFamily=Times New Roman;" vertex="1" parent="3">
                    <mxGeometry x="870" y="320" width="40" height="40" as="geometry"/>
                </mxCell>
                <mxCell id="141" value="8" style="ellipse;whiteSpace=wrap;html=1;aspect=fixed;fontSize=24;fontStyle=1;fillColor=none;fontFamily=Times New Roman;" vertex="1" parent="3">
                    <mxGeometry x="870" y="400" width="40" height="40" as="geometry"/>
                </mxCell>
                <mxCell id="142" value="9" style="ellipse;whiteSpace=wrap;html=1;aspect=fixed;fontSize=24;fontStyle=1;fillColor=none;fontFamily=Times New Roman;" vertex="1" parent="3">
                    <mxGeometry x="950" y="160" width="40" height="40" as="geometry"/>
                </mxCell>
                <mxCell id="158" value="" style="edgeStyle=orthogonalEdgeStyle;html=1;fontFamily=Times New Roman;fontSize=16;" edge="1" parent="3" source="144" target="137">
                    <mxGeometry relative="1" as="geometry"/>
                </mxCell>
                <mxCell id="144" value="10" style="ellipse;whiteSpace=wrap;html=1;aspect=fixed;fontSize=24;fontStyle=1;fillColor=none;fontFamily=Times New Roman;" vertex="1" parent="3">
                    <mxGeometry x="950" y="240" width="40" height="40" as="geometry"/>
                </mxCell>
                <mxCell id="146" value="11" style="ellipse;whiteSpace=wrap;html=1;aspect=fixed;fontSize=24;fontStyle=1;fillColor=none;fontFamily=Times New Roman;" vertex="1" parent="3">
                    <mxGeometry x="950" y="320" width="40" height="40" as="geometry"/>
                </mxCell>
                <mxCell id="148" value="12" style="ellipse;whiteSpace=wrap;html=1;aspect=fixed;fontSize=24;fontStyle=1;fillColor=none;fontFamily=Times New Roman;" vertex="1" parent="3">
                    <mxGeometry x="950" y="400" width="40" height="40" as="geometry"/>
                </mxCell>
                <mxCell id="149" value="13" style="ellipse;whiteSpace=wrap;html=1;aspect=fixed;fontSize=24;fontStyle=1;fillColor=none;fontFamily=Times New Roman;" vertex="1" parent="3">
                    <mxGeometry x="1030" y="160" width="40" height="40" as="geometry"/>
                </mxCell>
                <mxCell id="159" value="" style="edgeStyle=orthogonalEdgeStyle;html=1;fontFamily=Times New Roman;fontSize=16;" edge="1" parent="3" source="151" target="144">
                    <mxGeometry relative="1" as="geometry"/>
                </mxCell>
                <mxCell id="151" value="14" style="ellipse;whiteSpace=wrap;html=1;aspect=fixed;fontSize=24;fontStyle=1;fillColor=none;fontFamily=Times New Roman;" vertex="1" parent="3">
                    <mxGeometry x="1030" y="240" width="40" height="40" as="geometry"/>
                </mxCell>
                <mxCell id="161" value="" style="edgeStyle=orthogonalEdgeStyle;html=1;fontFamily=Times New Roman;fontSize=16;" edge="1" parent="3" source="153" target="151">
                    <mxGeometry relative="1" as="geometry"/>
                </mxCell>
                <mxCell id="153" value="15" style="ellipse;whiteSpace=wrap;html=1;aspect=fixed;fontSize=24;fontStyle=1;fillColor=none;fontFamily=Times New Roman;" vertex="1" parent="3">
                    <mxGeometry x="1030" y="320" width="40" height="40" as="geometry"/>
                </mxCell>
                <mxCell id="160" value="" style="edgeStyle=orthogonalEdgeStyle;html=1;fontFamily=Times New Roman;fontSize=16;" edge="1" parent="3" source="155" target="153">
                    <mxGeometry relative="1" as="geometry"/>
                </mxCell>
                <mxCell id="155" value="16" style="ellipse;whiteSpace=wrap;html=1;aspect=fixed;fontSize=24;fontStyle=1;fillColor=none;fontFamily=Times New Roman;" vertex="1" parent="3">
                    <mxGeometry x="1030" y="400" width="40" height="40" as="geometry"/>
                </mxCell>
            </root>
        </mxGraphModel>
    </diagram>
</mxfile>